<svg width="16" height="16" viewBox="0 0 16 16" fill="none" xmlns="http://www.w3.org/2000/svg">
<path d="M2.25 1.46875V4.05925C2.24997 4.10924 2.26084 4.15864 2.28185 4.20399C2.30287 4.24935 2.33353 4.28958 2.37169 4.32187L6.40869 7.73772C6.44678 7.76998 6.47738 7.81016 6.49837 7.85546C6.51936 7.90075 6.53024 7.95007 6.53024 8C6.53024 8.04992 6.51936 8.09924 6.49837 8.14454C6.47738 8.18983 6.44678 8.23001 6.40869 8.26228L2.37169 11.6781C2.33353 11.7104 2.30287 11.7506 2.28185 11.796C2.26084 11.8414 2.24997 11.8908 2.25 11.9407V14.5312C2.25 14.5764 2.25889 14.6211 2.27617 14.6628C2.29344 14.7045 2.31876 14.7424 2.35068 14.7743C2.3826 14.8062 2.4205 14.8316 2.4622 14.8488C2.50391 14.8661 2.54861 14.875 2.59375 14.875H12.9063C12.9514 14.875 12.9961 14.8661 13.0378 14.8488C13.0795 14.8316 13.1174 14.8062 13.1493 14.7743C13.1812 14.7424 13.2066 14.7045 13.2238 14.6628C13.2411 14.6211 13.25 14.5764 13.25 14.5312V11.9407C13.25 11.8908 13.2392 11.8414 13.2181 11.796C13.1971 11.7506 13.1665 11.7104 13.1283 11.6781L9.092 8.26228C9.05391 8.23001 9.02331 8.18983 9.00231 8.14454C8.98132 8.09924 8.97045 8.04992 8.97045 8C8.97045 7.95007 8.98132 7.90075 9.00231 7.85546C9.02331 7.81016 9.05391 7.76998 9.092 7.73772L13.1283 4.32187C13.1665 4.28958 13.1971 4.24935 13.2181 4.20399C13.2392 4.15864 13.25 4.10924 13.25 4.05925V1.46875C13.25 1.42361 13.2411 1.37891 13.2238 1.3372C13.2066 1.2955 13.1812 1.2576 13.1493 1.22568C13.1174 1.19376 13.0795 1.16844 13.0378 1.15117C12.9961 1.13389 12.9514 1.125 12.9063 1.125H2.59375C2.54861 1.125 2.50391 1.13389 2.4622 1.15117C2.4205 1.16844 2.3826 1.19376 2.35068 1.22568C2.31876 1.2576 2.29344 1.2955 2.27617 1.3372C2.25889 1.37891 2.25 1.42361 2.25 1.46875Z" fill="white"/>
</svg>
