<svg width="16" height="16" viewBox="0 0 16 16" fill="none" xmlns="http://www.w3.org/2000/svg">
<rect x="7.92676" y="9.64449" width="1.47379" height="3.68448" fill="white"/>
<rect x="5.34717" y="13.3285" width="6.63207" height="1.47379" fill="white"/>
<path d="M13.4531 2.51178H12.9531V3.01178V5.95937V6.99968L13.7655 6.3498L15.2393 5.17077L15.4269 5.02064V4.78033V3.01178V2.51178H14.9269H13.4531Z" stroke="white"/>
<path d="M3.87402 2.51178H4.37402V3.01178V5.95937V6.99968L3.56168 6.3498L2.08788 5.17077L1.90023 5.02064V4.78033V3.01178V2.51178H2.40023H3.87402Z" stroke="white"/>
<path fill-rule="evenodd" clip-rule="evenodd" d="M13.4527 0.802338H3.87305V5.59216C3.87305 8.23751 6.01753 10.382 8.66287 10.382C11.3082 10.382 13.4527 8.23751 13.4527 5.59216V0.802338ZM9.24168 4.0579L8.66262 2.27576L8.08357 4.0579H6.20972L7.7257 5.15933L7.14664 6.94147L8.66262 5.84004L10.1786 6.94147L9.59955 5.15933L11.1155 4.0579H9.24168Z" fill="white"/>
</svg>
