<svg width="20" height="21" viewBox="0 0 20 21" fill="none" xmlns="http://www.w3.org/2000/svg">
<path d="M3.33325 12.1667C3.17555 12.1672 3.02094 12.123 2.88737 12.0391C2.75381 11.9553 2.64677 11.8353 2.5787 11.693C2.51063 11.5508 2.48432 11.3921 2.50283 11.2355C2.52133 11.0789 2.5839 10.9308 2.68325 10.8083L10.9332 2.30833C10.9951 2.23689 11.0795 2.18862 11.1724 2.17144C11.2653 2.15425 11.3613 2.16917 11.4447 2.21375C11.528 2.25832 11.5937 2.32991 11.631 2.41675C11.6683 2.50359 11.675 2.60053 11.6499 2.69166L10.0499 7.70833C10.0027 7.8346 9.98689 7.97043 10.0037 8.10417C10.0206 8.2379 10.0696 8.36556 10.1467 8.47618C10.2237 8.5868 10.3264 8.67709 10.446 8.73929C10.5656 8.8015 10.6984 8.83377 10.8332 8.83333H16.6666C16.8243 8.83279 16.9789 8.87701 17.1124 8.96084C17.246 9.04468 17.3531 9.1647 17.4211 9.30695C17.4892 9.44919 17.5155 9.60784 17.497 9.76444C17.4785 9.92105 17.4159 10.0692 17.3166 10.1917L9.06658 18.6917C9.00469 18.7631 8.92036 18.8114 8.82743 18.8285C8.73449 18.8457 8.63848 18.8308 8.55514 18.7862C8.4718 18.7417 8.40609 18.6701 8.3688 18.5832C8.33151 18.4964 8.32485 18.3995 8.34991 18.3083L9.94991 13.2917C9.99709 13.1654 10.0129 13.0296 9.99609 12.8958C9.97924 12.7621 9.9302 12.6344 9.85317 12.5238C9.77614 12.4132 9.67343 12.3229 9.55385 12.2607C9.43426 12.1985 9.30137 12.1662 9.16658 12.1667H3.33325Z" stroke="#61CF57" stroke-width="1.66667" stroke-linecap="round" stroke-linejoin="round"/>
</svg>
