<svg width="20" height="20" viewBox="0 0 20 20" fill="none" xmlns="http://www.w3.org/2000/svg">
<path d="M8.82528 1.87479C8.82577 1.87349 8.82625 1.87184 8.82692 1.87184C8.82528 1.87054 8.82495 1.87184 8.82528 1.87479Z" fill="#D81E06"/>
<path d="M2.78492 8.6059C2.78463 8.60609 2.78434 8.60631 2.7842 8.60623C2.78432 8.60654 2.78457 8.60635 2.78492 8.6059ZM10.1644 12.303C9.8534 12.303 9.60269 12.4096 9.41238 12.6229C9.22203 12.8362 9.12686 13.1578 9.12686 13.5878C9.12686 14.011 9.22457 14.3318 9.42004 14.5502C9.61545 14.7686 9.86359 14.8778 10.1644 14.8778C10.4652 14.8778 10.7121 14.7694 10.905 14.5527C11.0979 14.336 11.1943 14.011 11.1943 13.5776C11.1943 13.1493 11.1004 12.8298 10.9126 12.6191C10.7248 12.4084 10.4754 12.303 10.1644 12.303Z" fill="white"/>
<path d="M16.6886 16.0745C16.8039 15.9097 16.9033 15.7267 16.9836 15.5216C19.2903 9.60342 11.3199 0.95395 10.4886 0.0743408C10.4905 0.0775635 10.4926 0.0814307 10.4944 0.0846729C10.4431 0.0301416 10.4142 0.00012207 10.4142 0.00012207C10.5355 0.559634 10.6123 1.08077 10.6533 1.57157C10.6511 1.55463 10.6496 1.53833 10.6473 1.52139C10.7056 2.16901 10.6972 2.75981 10.6346 3.30563C10.6249 3.38823 10.6151 3.471 10.6029 3.55166C10.601 3.56471 10.5985 3.57764 10.5965 3.59053C10.1961 6.14194 8.55092 7.66239 6.8025 9.24768C6.34525 8.80739 6.07502 8.17251 6.0752 7.23965C6.07682 6.815 6.13377 6.32907 6.25461 5.7718L6.25057 5.77456C6.25201 5.76764 6.25314 5.76118 6.25461 5.75409C6.25461 5.75409 5.00746 6.56043 3.97008 8.08202C3.9699 8.08186 3.96975 8.08153 3.96975 8.08153C3.96619 8.08668 3.96281 8.09252 3.9591 8.09768C3.89264 8.19577 3.82695 8.29612 3.76275 8.40002C3.75969 8.40469 3.75693 8.40969 3.75402 8.41438C3.69444 8.51134 3.63683 8.60951 3.58123 8.70881C3.56814 8.73198 3.55518 8.75521 3.54234 8.77852C3.48603 8.88112 3.4307 8.98565 3.37762 9.09329C3.37502 9.0986 3.37213 9.10377 3.36953 9.10909C3.3141 9.22257 3.26139 9.33737 3.21143 9.45336C3.19918 9.48161 3.18754 9.51034 3.17562 9.53874C3.13523 9.63515 3.09688 9.7324 3.06059 9.83043C3.05027 9.85819 3.03961 9.88528 3.02961 9.91303C3.00832 9.97276 2.9883 10.0334 2.9683 10.0944C2.96781 10.0957 2.96732 10.097 2.96701 10.0982C2.94652 10.1602 2.92603 10.2222 2.90717 10.2854C2.89943 10.3109 2.89264 10.3373 2.88523 10.3632C2.85483 10.4688 2.82686 10.5752 2.80133 10.6821C2.79227 10.7191 2.78356 10.7561 2.77519 10.7933C2.74518 10.9275 2.71742 11.063 2.69469 11.2021C2.69469 11.2031 2.69436 11.2041 2.69436 11.205C2.68175 11.2809 2.6705 11.3571 2.66062 11.4334C2.66 11.4386 2.65936 11.4438 2.65869 11.4489C2.64923 11.5223 2.64095 11.5957 2.63385 11.6693C2.63287 11.6777 2.63223 11.6861 2.63143 11.6947C2.62465 11.7665 2.6189 11.8384 2.61416 11.9104C2.61352 11.921 2.61287 11.932 2.61238 11.9426C2.60802 12.0137 2.60473 12.0848 2.60254 12.1559L2.60156 12.194C2.5997 12.2648 2.5989 12.3355 2.59914 12.4063V12.4486C2.59978 12.5192 2.60139 12.5902 2.60414 12.6617C2.60463 12.6767 2.60496 12.6919 2.60576 12.7069C2.60883 12.7783 2.61285 12.8503 2.61787 12.9226C2.61932 12.9381 2.62012 12.9532 2.62125 12.9687C2.62674 13.0416 2.63367 13.115 2.64125 13.1888C2.64287 13.2041 2.64432 13.2191 2.64609 13.2343C2.65416 13.3095 2.664 13.3851 2.67449 13.4611C2.67658 13.4755 2.67853 13.4897 2.68047 13.504C2.69176 13.582 2.70449 13.6608 2.71822 13.7399C2.72064 13.7525 2.7224 13.7651 2.72482 13.7777C2.73969 13.8611 2.75593 13.9442 2.77355 14.0271C2.77549 14.0364 2.77727 14.0458 2.77904 14.0552C2.79835 14.145 2.81905 14.2345 2.84115 14.3236C2.84213 14.3281 2.84311 14.3325 2.84422 14.3369C2.93941 14.7202 3.06363 15.115 3.22207 15.5216C3.30209 15.7266 3.40148 15.9096 3.51701 16.0745C4.86902 18.4455 8.6932 19.9998 8.6932 19.9998V19.9997C8.68 19.9943 7.58352 19.5468 6.36076 18.7696C7.58352 19.5469 8.68002 19.9942 8.6932 19.9995L8.69385 19.9998V19.9992C8.69465 19.9996 8.69547 19.9998 8.69547 19.9998C8.76791 19.3348 9.0567 18.8812 9.48604 18.5601C9.4857 18.5597 9.48522 18.5597 9.4849 18.5594C9.48732 18.5578 9.4899 18.5562 9.49232 18.5544C9.57896 18.4901 9.67125 18.431 9.76869 18.3766C9.77385 18.3737 9.779 18.371 9.78418 18.3681C9.8818 18.3144 9.9844 18.2653 10.0917 18.2205C10.0949 18.2192 10.0978 18.2177 10.1011 18.2164C10.8645 18.533 11.4055 19.0525 11.5086 19.9998C11.5086 19.9998 11.509 19.9995 11.5092 19.9995V19.9998C11.5092 19.9998 12.344 19.6604 13.3712 19.0573C13.3699 19.0586 13.3686 19.0601 13.3673 19.0615C14.5404 18.3734 15.9666 17.3404 16.6886 16.0745ZM7.72221 15.459H6.9676V13.8249H5.489V15.459H4.73439V11.7217H5.489V13.1927H6.9676V11.7217H7.72221V15.459ZM11.4824 15.0116C11.1544 15.3524 10.7159 15.5227 10.167 15.5227C9.61121 15.5227 9.1693 15.3532 8.84133 15.0142C8.5133 14.6751 8.3493 14.2082 8.3493 13.6133C8.3493 13.2326 8.40623 12.9131 8.52012 12.6548C8.60508 12.4644 8.72107 12.2936 8.86809 12.1424C9.01508 11.9911 9.17611 11.879 9.35117 11.8059C9.58398 11.7073 9.85252 11.658 10.1568 11.658C10.7074 11.658 11.148 11.8289 11.4786 12.1704C11.8091 12.512 11.9744 12.9871 11.9744 13.5955C11.9744 14.1988 11.8104 14.6709 11.4824 15.0116ZM12.2956 12.354V11.7217H15.2656V12.354H14.1592V15.459H13.4046V12.354H12.2956Z" fill="white"/>
</svg>
