<svg width="46" height="46" viewBox="0 0 46 46" fill="none" xmlns="http://www.w3.org/2000/svg">
<g clip-path="url(#clip0_3350_5324)">
<path d="M20.3051 45.9998C9.10906 45.9998 0.000488281 36.8912 0.000488281 25.6952C0.000488281 14.4992 9.10906 5.39062 20.3051 5.39062C31.501 5.39062 40.6096 14.4992 40.6096 25.6952C40.6096 36.8912 31.501 45.9998 20.3051 45.9998Z" fill="#FFDE46"/>
<path d="M20.3047 5.39062V45.9998C31.5007 45.9998 40.6093 36.8912 40.6093 25.6952C40.6093 14.4992 31.5007 5.39062 20.3047 5.39062Z" fill="#FFCD00"/>
<path d="M8.41695 23.8991C8.27248 23.8991 8.12568 23.8756 7.98121 23.8264C7.27692 23.5858 6.90102 22.8198 7.14153 22.1154C7.95515 19.7333 10.1931 18.1328 12.7103 18.1328C15.2256 18.1328 17.463 19.7318 18.2778 22.1115C18.519 22.8156 18.1435 23.5819 17.4393 23.8231C16.7347 24.0641 15.9689 23.6887 15.7278 22.9846C15.2862 21.6948 14.0736 20.8281 12.7103 20.8281C11.3459 20.8281 10.133 21.6956 9.69201 22.9866C9.50101 23.5466 8.9774 23.8991 8.41695 23.8991Z" fill="#00347B"/>
<path fill-rule="evenodd" clip-rule="evenodd" d="M24.0459 31.4453H28.8478V36.8359H24.0459V31.4453Z" fill="#F6EFEA"/>
<path d="M23.6069 23.8991C23.4624 23.8991 23.3156 23.8756 23.1712 23.8264C22.4669 23.5858 22.091 22.8198 22.3315 22.1154C23.1451 19.7333 25.383 18.1328 27.9003 18.1328C30.4155 18.1328 32.6529 19.7318 33.4678 22.1115C33.7089 22.8156 33.3335 23.5819 32.6293 23.8231C31.9248 24.0641 31.1589 23.6887 30.9177 22.9846C30.4762 21.6948 29.2635 20.8281 27.9003 20.8281C26.5359 20.8281 25.3229 21.6956 24.882 22.9866C24.6909 23.5466 24.1673 23.8991 23.6069 23.8991Z" fill="#001737"/>
<path d="M21.5767 39.7021C21.1728 39.7021 20.7734 39.5212 20.5079 39.1765C20.0538 38.5868 20.1639 37.7406 20.7535 37.2865C21.8791 36.4198 22.5511 35.0545 22.5511 33.6341C22.5511 32.3264 21.9929 31.0756 21.0193 30.2025C20.4652 29.7055 20.4189 28.8535 20.916 28.2994C21.413 27.7452 22.2651 27.6991 22.8191 28.1961C24.3618 29.5797 25.2465 31.5618 25.2465 33.6341C25.2465 35.8851 24.1816 38.0489 22.398 39.4222C22.153 39.6107 21.8637 39.7021 21.5767 39.7021Z" fill="#001737"/>
<path d="M4.1562 19.3165C4.00023 19.3165 3.84327 19.2894 3.69216 19.234C3.23809 19.0674 2.90809 18.6703 2.82759 18.1933L2.54306 16.5093L3.44697 13.8417L2.03473 13.5007L1.50717 10.3784L2.25413 7.5717L0.985719 7.29193L0.0193652 1.57224C-0.0601461 1.10191 0.114958 0.624483 0.479812 0.317039C0.844755 0.00968529 1.34473 -0.0819548 1.79494 0.0762591L7.26127 1.99702L7.51481 3.4275L10.212 3.03381L13.1969 4.08264L13.219 5.56847L16.1477 5.11934L17.6984 5.66424C18.1548 5.82452 18.4902 6.21713 18.5773 6.69285C18.6644 7.16866 18.4899 7.65463 18.12 7.9662L5.02471 18.9994C4.77782 19.2074 4.46921 19.3165 4.1562 19.3165Z" fill="#FF3F5C"/>
<path d="M1.50689 10.3786L10.2117 3.03387L7.26094 1.99707L0.985352 7.2921L1.50689 10.3786Z" fill="#D20763"/>
<path d="M2.03467 13.5012L2.543 16.5098C2.67202 16.4577 2.79546 16.3858 2.90759 16.2911L16.1476 5.1198L13.1969 4.08301L2.03467 13.5012Z" fill="#D20763"/>
<path d="M37.2852 6.82812C38.0294 6.82812 38.6328 6.22476 38.6328 5.48047C38.6328 4.73618 38.0294 4.13281 37.2852 4.13281C36.5409 4.13281 35.9375 4.73618 35.9375 5.48047C35.9375 6.22476 36.5409 6.82812 37.2852 6.82812Z" fill="#00AB5E"/>
<path d="M44.3413 14.0602C44.8675 13.534 44.8675 12.6808 44.3413 12.1546C43.8151 11.6284 42.9619 11.6284 42.4357 12.1546C41.9095 12.6808 41.9095 13.534 42.4357 14.0602C42.9619 14.5864 43.8151 14.5864 44.3413 14.0602Z" fill="#D20763"/>
<path d="M24.0508 13.5918C24.7951 13.5918 25.3984 12.9884 25.3984 12.2441C25.3984 11.4999 24.7951 10.8965 24.0508 10.8965C23.3065 10.8965 22.7031 11.4999 22.7031 12.2441C22.7031 12.9884 23.3065 13.5918 24.0508 13.5918Z" fill="#A24BDB"/>
<path d="M2.51611 41.418C3.2604 41.418 3.86377 40.8146 3.86377 40.0703C3.86377 39.326 3.2604 38.7227 2.51611 38.7227C1.77182 38.7227 1.16846 39.326 1.16846 40.0703C1.16846 40.8146 1.77182 41.418 2.51611 41.418Z" fill="#B760EA"/>
<path d="M44.6523 2.69531C45.3966 2.69531 46 2.09195 46 1.34766C46 0.603366 45.3966 0 44.6523 0C43.9081 0 43.3047 0.603366 43.3047 1.34766C43.3047 2.09195 43.9081 2.69531 44.6523 2.69531Z" fill="#A24BDB"/>
<path d="M38.6329 45.5504C38.6105 45.5504 38.588 45.5502 38.5655 45.5498C37.8215 45.5359 37.2295 44.9213 37.2434 44.1772C37.2573 43.4331 37.8733 42.837 38.616 42.855L38.6329 42.8551C39.1777 42.8551 39.6657 42.5304 39.876 42.0279C40.1633 41.3412 40.9531 41.0177 41.6395 41.305C42.3261 41.5924 42.6497 42.3819 42.3623 43.0685C41.7313 44.5762 40.2674 45.5504 38.6329 45.5504Z" fill="#A24BDB"/>
<path d="M27.8225 4.35016C26.1881 4.35016 24.7243 3.37598 24.0932 1.86832C23.8058 1.18173 24.1293 0.392184 24.8159 0.104774C25.5022 -0.182366 26.292 0.140891 26.5793 0.827567C26.7897 1.33015 27.2777 1.65485 27.8225 1.65485L27.8394 1.65476C28.582 1.63787 29.1981 2.23272 29.212 2.9769C29.2259 3.72107 28.6341 4.33561 27.8899 4.34953C27.8674 4.34998 27.845 4.35016 27.8225 4.35016Z" fill="#008ADF"/>
<path d="M8.49388 33.8108C8.2583 33.8108 8.02031 33.7902 7.7824 33.748C7.04955 33.618 6.5608 32.9186 6.69089 32.1856C6.82098 31.4527 7.52024 30.9641 8.25327 31.0941C8.79 31.1898 9.32691 30.9548 9.62177 30.4967L9.63085 30.4825C10.022 29.8492 10.8522 29.6528 11.4857 30.0441C12.1189 30.4353 12.3151 31.2656 11.924 31.8989C11.9126 31.9174 11.9008 31.9359 11.8892 31.9541C11.1342 33.1266 9.85231 33.8108 8.49388 33.8108Z" fill="#00DD7B"/>
<path fill-rule="evenodd" clip-rule="evenodd" d="M41.0589 26.3242C40.8107 26.3242 40.6096 26.5253 40.6094 26.7734L40.6073 30.0984C40.6069 30.8424 40.0037 31.4453 39.2597 31.4453H28.4502V36.8359H40.6097C43.5868 36.8359 46.0003 34.4224 46.0003 31.4453V31.2656C46.0003 28.5478 43.7766 26.3242 41.0589 26.3242Z" fill="#008ADF"/>
</g>
<defs>
<clipPath id="clip0_3350_5324">
<rect width="46" height="46" fill="white"/>
</clipPath>
</defs>
</svg>
