<svg width="16" height="17" viewBox="0 0 16 17" fill="none" xmlns="http://www.w3.org/2000/svg">
<path fill-rule="evenodd" clip-rule="evenodd" d="M3.33314 3.20005C3.16517 3.20005 3.00408 3.26677 2.8853 3.38555C2.76653 3.50432 2.6998 3.66541 2.6998 3.83338V13.1667C2.6998 13.3347 2.76653 13.4958 2.8853 13.6145C3.00408 13.7333 3.16517 13.8 3.33314 13.8H12.6665C12.8344 13.8 12.9955 13.7333 13.1143 13.6145C13.2331 13.4958 13.2998 13.3347 13.2998 13.1667V9.16672C13.2998 8.78012 13.6132 8.46672 13.9998 8.46672C14.3864 8.46672 14.6998 8.78012 14.6998 9.16672V13.1667C14.6998 13.706 14.4856 14.2232 14.1043 14.6045C13.7229 14.9858 13.2057 15.2 12.6665 15.2H3.33314C2.79386 15.2 2.27668 14.9858 1.89535 14.6045C1.51403 14.2232 1.2998 13.706 1.2998 13.1667V3.83338C1.2998 3.29411 1.51403 2.77692 1.89535 2.3956C2.27668 2.01427 2.79386 1.80005 3.33314 1.80005H7.33314C7.71974 1.80005 8.03314 2.11345 8.03314 2.50005C8.03314 2.88665 7.71974 3.20005 7.33314 3.20005H3.33314Z" fill="white"/>
<path fill-rule="evenodd" clip-rule="evenodd" d="M14.4948 2.00507C14.7681 2.27844 14.7681 2.72166 14.4948 2.99502L8.49478 8.99502C8.22141 9.26839 7.7782 9.26839 7.50483 8.99502C7.23146 8.72166 7.23146 8.27844 7.50483 8.00507L13.5048 2.00507C13.7782 1.73171 14.2214 1.73171 14.4948 2.00507Z" fill="white"/>
<path fill-rule="evenodd" clip-rule="evenodd" d="M9.2998 2.50005C9.2998 2.11345 9.61321 1.80005 9.9998 1.80005H13.9998C14.3864 1.80005 14.6998 2.11345 14.6998 2.50005V6.50005C14.6998 6.88665 14.3864 7.20005 13.9998 7.20005C13.6132 7.20005 13.2998 6.88665 13.2998 6.50005V3.20005H9.9998C9.61321 3.20005 9.2998 2.88665 9.2998 2.50005Z" fill="white"/>
</svg>
