<svg width="30" height="30" viewBox="0 0 30 30" fill="none" xmlns="http://www.w3.org/2000/svg">
<path d="M24.659 30H5.16675C2.31707 30 0 27.7252 0 24.9303V5.06969C0 2.27476 2.31707 0 5.16675 0H24.659C27.5062 0 29.8258 2.27476 29.8258 5.06969V24.9303C29.8258 27.7252 27.5062 30 24.659 30ZM5.16675 2.19761C3.52912 2.19761 2.19761 3.48432 2.19761 5.0672V24.9278C2.19761 26.5107 3.52912 27.7974 5.16675 27.7974H24.659C26.2967 27.7974 27.6257 26.5107 27.6257 24.9303V5.06969C27.6257 3.48681 26.2967 2.2001 24.659 2.2001H5.16675V2.19761ZM21.9189 6.83425L13.0015 17.6406L7.48134 13.3972L4.91289 16.5729L10.4082 20.7939L10.4007 20.8014L13.3922 23.1633L24.9154 9.2011L21.9214 6.83425H21.9189Z" fill="white"/>
</svg>
