<svg width="297" height="85" viewBox="0 0 297 85" fill="none" xmlns="http://www.w3.org/2000/svg">
<path d="M99 14C99 6.268 105.268 0 113 0H184C191.732 0 198 6.26801 198 14V83.9491H99V14Z" fill="#153390"/>
<path d="M0 24.0001C0 16.2681 6.26801 10.0001 14 10.0001H85C92.732 10.0001 99 16.2681 99 24.0001V84.0475H0V24.0001Z" fill="#153390"/>
<path d="M198 24.0001C198 16.2681 204.268 10.0001 212 10.0001H283C290.732 10.0001 297 16.2681 297 24.0001V84.0475H198V24.0001Z" fill="#153390"/>
<path d="M55.8594 58.4562H44.1406L46.0156 52.3625H53.9844L55.8594 58.4562Z" fill="url(#paint0_linear_0_1)"/>
<path d="M41.0938 58.4562H58.9062C59.9375 58.4562 60.7812 59.3 60.7812 60.3312V63.6125H39.2188V60.3312C39.2188 59.3 40.0625 58.4562 41.0938 58.4562Z" fill="url(#paint1_linear_0_1)"/>
<path d="M38.0469 63.6125H61.9531C63.3781 63.6125 64.5312 64.7656 64.5312 66.1906C64.5312 67.6156 63.3781 68.7687 61.9531 68.7687H38.0469C36.6219 68.7687 35.4688 67.6156 35.4688 66.1906C35.4688 64.775 36.6219 63.6125 38.0469 63.6125Z" fill="url(#paint2_linear_0_1)"/>
<path d="M65.6187 37.55C66.0874 37.55 66.2187 37.6812 66.303 37.7656C66.4062 37.8687 66.453 37.9531 66.4812 38.0937C66.5187 38.2625 66.5562 38.6281 66.4062 39.2562C66.0593 40.7469 64.953 42.5 63.378 44.075C61.0624 46.3906 58.8968 47.2156 57.753 47.2156C57.2843 47.2156 57.153 47.0844 57.0687 47C56.9655 46.8969 56.9187 46.8125 56.8905 46.6719C56.853 46.5031 56.8155 46.1375 56.9655 45.5094C57.3124 44.0187 58.4187 42.2656 59.9937 40.6906C62.3093 38.375 64.4655 37.55 65.6187 37.55ZM65.6187 32.3937C62.6843 32.3937 59.2718 34.1187 56.3468 37.0437C51.7812 41.6094 50.1405 47.3656 53.4218 50.6469C54.603 51.8281 56.103 52.3719 57.7437 52.3719C60.678 52.3719 64.0905 50.6469 67.0155 47.7219C71.5812 43.1562 73.2218 37.4 69.9405 34.1187C68.7687 32.9375 67.2687 32.3937 65.6187 32.3937Z" fill="url(#paint3_linear_0_1)"/>
<path d="M34.3812 37.55C35.5343 37.55 37.6906 38.375 40.0062 40.6906C41.5812 42.2656 42.6875 44.0281 43.0343 45.5094C43.1843 46.1375 43.1468 46.5031 43.1093 46.6719C43.0812 46.8125 43.0343 46.8969 42.9312 47C42.8468 47.0844 42.7156 47.2156 42.2468 47.2156C41.0937 47.2156 38.9375 46.3906 36.6218 44.075C35.0468 42.5 33.9406 40.7469 33.5937 39.2562C33.4437 38.6281 33.4812 38.2625 33.5187 38.0937C33.5468 37.9531 33.5937 37.8687 33.6968 37.7656C33.7812 37.6812 33.9125 37.55 34.3812 37.55ZM34.3812 32.3937C32.7312 32.3937 31.2312 32.9375 30.05 34.1187C26.7687 37.4 28.4093 43.1562 32.975 47.7219C35.9 50.6469 39.3125 52.3719 42.2468 52.3719C43.8968 52.3719 45.3968 51.8281 46.5687 50.6469C49.85 47.3656 48.2093 41.6094 43.6437 37.0437C40.7281 34.1187 37.3156 32.3937 34.3812 32.3937Z" fill="url(#paint4_linear_0_1)"/>
<path d="M39.4905 44.4781V41.975C39.4905 39.7906 39.1342 37.6156 38.3749 35.5625C37.8874 34.2406 37.6155 32.8156 37.6155 31.3156H62.3842C62.3842 32.8062 62.1124 34.2406 61.6249 35.5625C60.8655 37.6062 60.5092 39.7906 60.5092 41.975V44.4781C60.5092 50.2812 55.803 54.9875 49.9999 54.9875C44.1967 54.9875 39.4905 50.2812 39.4905 44.4781Z" fill="url(#paint5_linear_0_1)"/>
<path d="M37.5781 25.2313H62.4219C64.1 25.2313 65.4688 26.6 65.4688 28.2781C65.4688 29.9563 64.1 31.325 62.4219 31.325H37.5781C35.9 31.325 34.5312 29.9563 34.5312 28.2688C34.5312 26.5906 35.9 25.2313 37.5781 25.2313Z" fill="url(#paint6_linear_0_1)"/>
<path d="M50 47.8438C53.6244 47.8438 56.5625 44.9056 56.5625 41.2812C56.5625 37.6569 53.6244 34.7188 50 34.7188C46.3756 34.7188 43.4375 37.6569 43.4375 41.2812C43.4375 44.9056 46.3756 47.8438 50 47.8438Z" fill="url(#paint7_linear_0_1)"/>
<path d="M47.0187 45.6781V44.3375L49.8124 41.3938C50.0655 41.1031 50.2624 40.8594 50.4124 40.6344C50.5624 40.4094 50.6655 40.2125 50.7312 40.0344C50.7968 39.8563 50.8249 39.6781 50.8249 39.5094C50.8249 39.2281 50.7499 38.9844 50.5999 38.7969C50.4499 38.6 50.2249 38.5063 49.9249 38.5063C49.5968 38.5063 49.353 38.6188 49.1937 38.8531C49.0343 39.0875 48.9593 39.3969 48.9593 39.7906H46.9062L46.8968 39.7531C46.8874 39.2188 46.9999 38.7313 47.2437 38.3C47.4874 37.8688 47.8437 37.5219 48.303 37.2688C48.7624 37.0156 49.3062 36.8844 49.9249 36.8844C50.5437 36.8844 51.078 36.9969 51.528 37.2125C51.978 37.4281 52.3155 37.7281 52.5593 38.1219C52.803 38.5156 52.9155 38.975 52.9155 39.4906C52.9155 39.8469 52.8593 40.175 52.7374 40.475C52.6155 40.775 52.4187 41.0938 52.1374 41.4313C51.8562 41.7688 51.4905 42.1813 51.0312 42.6688L49.7187 44.0563L49.728 44.0844H51.4437L51.528 43.3625H53.0937V45.6688L47.0187 45.6781Z" fill="url(#paint8_linear_0_1)"/>
<path d="M253.859 58.4562H242.141L244.016 52.3625H251.984L253.859 58.4562Z" fill="#FF7129"/>
<path d="M239.094 58.4562H256.906C257.938 58.4562 258.781 59.3 258.781 60.3312V63.6125H237.219V60.3312C237.219 59.3 238.062 58.4562 239.094 58.4562Z" fill="#B24E1D"/>
<path d="M236.047 63.6125H259.953C261.378 63.6125 262.531 64.7656 262.531 66.1906C262.531 67.6156 261.378 68.7687 259.953 68.7687H236.047C234.622 68.7687 233.469 67.6156 233.469 66.1906C233.469 64.775 234.622 63.6125 236.047 63.6125Z" fill="#FFA017"/>
<path d="M263.619 37.55C264.087 37.55 264.219 37.6812 264.303 37.7656C264.406 37.8687 264.453 37.9531 264.481 38.0937C264.519 38.2625 264.556 38.6281 264.406 39.2562C264.059 40.7469 262.953 42.5 261.378 44.075C259.062 46.3906 256.897 47.2156 255.753 47.2156C255.284 47.2156 255.153 47.0844 255.069 47C254.966 46.8969 254.919 46.8125 254.891 46.6719C254.853 46.5031 254.816 46.1375 254.966 45.5094C255.312 44.0187 256.419 42.2656 257.994 40.6906C260.309 38.375 262.466 37.55 263.619 37.55ZM263.619 32.3937C260.684 32.3937 257.272 34.1187 254.347 37.0437C249.781 41.6094 248.141 47.3656 251.422 50.6469C252.603 51.8281 254.103 52.3719 255.744 52.3719C258.678 52.3719 262.091 50.6469 265.016 47.7219C269.581 43.1562 271.222 37.4 267.941 34.1187C266.769 32.9375 265.269 32.3937 263.619 32.3937Z" fill="#FF7129"/>
<path d="M232.381 37.55C233.534 37.55 235.691 38.375 238.006 40.6906C239.581 42.2656 240.687 44.0281 241.034 45.5094C241.184 46.1375 241.147 46.5031 241.109 46.6719C241.081 46.8125 241.034 46.8969 240.931 47C240.847 47.0844 240.716 47.2156 240.247 47.2156C239.094 47.2156 236.937 46.3906 234.622 44.075C233.047 42.5 231.941 40.7469 231.594 39.2562C231.444 38.6281 231.481 38.2625 231.519 38.0937C231.547 37.9531 231.594 37.8687 231.697 37.7656C231.781 37.6812 231.912 37.55 232.381 37.55ZM232.381 32.3937C230.731 32.3937 229.231 32.9375 228.05 34.1187C224.769 37.4 226.409 43.1562 230.975 47.7219C233.9 50.6469 237.312 52.3719 240.247 52.3719C241.897 52.3719 243.397 51.8281 244.569 50.6469C247.85 47.3656 246.209 41.6094 241.644 37.0437C238.728 34.1187 235.316 32.3937 232.381 32.3937Z" fill="#FF7129"/>
<path d="M237.49 44.4781V41.975C237.49 39.7906 237.134 37.6156 236.375 35.5625C235.887 34.2406 235.615 32.8156 235.615 31.3156H260.384C260.384 32.8062 260.112 34.2406 259.625 35.5625C258.865 37.6062 258.509 39.7906 258.509 41.975V44.4781C258.509 50.2812 253.803 54.9875 248 54.9875C242.197 54.9875 237.49 50.2812 237.49 44.4781Z" fill="#FFA017"/>
<path d="M235.578 25.2313H260.422C262.1 25.2313 263.469 26.6 263.469 28.2781C263.469 29.9563 262.1 31.325 260.422 31.325H235.578C233.9 31.325 232.531 29.9563 232.531 28.2688C232.531 26.5906 233.9 25.2313 235.578 25.2313Z" fill="#FFB031"/>
<path d="M248 47.8438C251.624 47.8438 254.562 44.9056 254.562 41.2812C254.562 37.6569 251.624 34.7188 248 34.7188C244.376 34.7188 241.438 37.6569 241.438 41.2812C241.438 44.9056 244.376 47.8438 248 47.8438Z" fill="#FFF0C5"/>
<path d="M247.953 45.7344C247.381 45.7344 246.866 45.6312 246.387 45.4437C245.909 45.2469 245.534 44.9562 245.244 44.5812C244.962 44.1969 244.831 43.7375 244.841 43.1844L244.85 43.1469H246.884C246.884 43.325 246.931 43.4937 247.016 43.6531C247.1 43.8031 247.222 43.925 247.391 44.0187C247.55 44.1125 247.737 44.1594 247.962 44.1594C248.3 44.1594 248.572 44.0562 248.778 43.8594C248.975 43.6625 249.078 43.4 249.078 43.0906C249.078 42.7812 248.966 42.5 248.75 42.2937C248.534 42.0875 248.216 41.9844 247.794 41.9844H246.903V40.4469H247.85C248.084 40.4469 248.281 40.4094 248.441 40.3156C248.6 40.2312 248.722 40.1094 248.806 39.9594C248.891 39.8094 248.928 39.6312 248.928 39.425C248.928 39.1344 248.844 38.9 248.675 38.7125C248.506 38.525 248.262 38.4313 247.953 38.4313C247.775 38.4313 247.616 38.4687 247.475 38.5344C247.334 38.6 247.222 38.7031 247.137 38.825C247.053 38.9469 247.016 39.0969 247.016 39.2656H244.991L244.981 39.2281C244.962 38.75 245.084 38.3375 245.337 37.9719C245.591 37.6062 245.937 37.3344 246.397 37.1281C246.847 36.9312 247.362 36.8281 247.934 36.8281C248.862 36.8281 249.612 37.0438 250.175 37.4656C250.737 37.8969 251.019 38.4969 251.019 39.275C251.019 39.7063 250.906 40.0812 250.681 40.3812C250.456 40.6812 250.109 40.9531 249.659 41.1687C250.119 41.3375 250.484 41.6 250.747 41.9375C251.009 42.275 251.159 42.6969 251.159 43.175C251.159 43.7 251.019 44.1594 250.747 44.5437C250.466 44.9281 250.091 45.2187 249.603 45.425C249.116 45.6312 248.572 45.7437 247.953 45.7344Z" fill="#FFA017"/>
<path d="M155.836 55.3657H142.164L144.352 48.2563H153.648L155.836 55.3657Z" fill="#FFB000"/>
<path d="M138.609 55.3657H159.391C160.594 55.3657 161.578 56.35 161.578 57.5532V61.3813H136.422V57.5532C136.422 56.35 137.406 55.3657 138.609 55.3657Z" fill="#4D7382"/>
<path d="M135.055 61.3813H162.945C164.608 61.3813 165.953 62.7266 165.953 64.3891C165.953 66.0516 164.608 67.3969 162.945 67.3969H135.055C133.392 67.3969 132.047 66.0516 132.047 64.3891C132.047 62.7375 133.392 61.3813 135.055 61.3813Z" fill="#FFCE00"/>
<path d="M167.222 30.975C167.769 30.975 167.922 31.1282 168.02 31.2266C168.141 31.3469 168.195 31.4453 168.228 31.6094C168.272 31.8063 168.316 32.2328 168.141 32.9657C167.736 34.7047 166.445 36.75 164.608 38.5875C161.906 41.2891 159.38 42.2516 158.045 42.2516C157.498 42.2516 157.345 42.0985 157.247 42C157.127 41.8797 157.072 41.7813 157.039 41.6172C156.995 41.4203 156.952 40.9938 157.127 40.261C157.531 38.5219 158.822 36.4766 160.659 34.6391C163.361 31.9375 165.877 30.975 167.222 30.975ZM167.222 24.9594C163.798 24.9594 159.817 26.9719 156.405 30.3844C151.078 35.711 149.164 42.4266 152.992 46.2547C154.37 47.6328 156.12 48.2672 158.034 48.2672C161.458 48.2672 165.439 46.2547 168.852 42.8422C174.178 37.5157 176.092 30.8 172.264 26.9719C170.897 25.5938 169.147 24.9594 167.222 24.9594Z" fill="#FFB000"/>
<path d="M130.778 30.975C132.124 30.975 134.639 31.9375 137.341 34.6391C139.178 36.4766 140.469 38.5329 140.874 40.261C141.049 40.9938 141.005 41.4203 140.961 41.6172C140.928 41.7813 140.874 41.8797 140.753 42C140.655 42.0985 140.502 42.2516 139.955 42.2516C138.609 42.2516 136.094 41.2891 133.392 38.5875C131.555 36.75 130.264 34.7047 129.859 32.9657C129.684 32.2328 129.728 31.8063 129.772 31.6094C129.805 31.4453 129.859 31.3469 129.98 31.2266C130.078 31.1282 130.231 30.975 130.778 30.975ZM130.778 24.9594C128.853 24.9594 127.103 25.5938 125.725 26.9719C121.897 30.8 123.811 37.5157 129.138 42.8422C132.55 46.2547 136.531 48.2672 139.955 48.2672C141.88 48.2672 143.63 47.6328 144.997 46.2547C148.825 42.4266 146.911 35.711 141.584 30.3844C138.183 26.9719 134.202 24.9594 130.778 24.9594Z" fill="#FFB000"/>
<path d="M136.739 39.0578V36.1375C136.739 33.5891 136.324 31.0516 135.438 28.6563C134.869 27.1141 134.552 25.4516 134.552 23.7016H163.449C163.449 25.4407 163.131 27.1141 162.563 28.6563C161.677 31.0407 161.261 33.5891 161.261 36.1375V39.0578C161.261 45.8282 155.771 51.3188 149 51.3188C142.23 51.3188 136.739 45.8282 136.739 39.0578Z" fill="#FFCE00"/>
<path d="M134.508 16.6031H163.492C165.45 16.6031 167.047 18.2 167.047 20.1578C167.047 22.1156 165.45 23.7125 163.492 23.7125H134.508C132.55 23.7125 130.953 22.1156 130.953 20.1469C130.953 18.1891 132.55 16.6031 134.508 16.6031Z" fill="#FFDF43"/>
<path d="M149 42.9844C153.228 42.9844 156.656 39.5566 156.656 35.3281C156.656 31.0997 153.228 27.6719 149 27.6719C144.772 27.6719 141.344 31.0997 141.344 35.3281C141.344 39.5566 144.772 42.9844 149 42.9844Z" fill="#FFF0C5"/>
<path d="M145.992 40.3813V38.9594L147.786 38.7406V32.3531L145.97 32.3313V30.986L150.214 30.275V38.7406L152.008 38.9594V40.3813H145.992Z" fill="#FFC200"/>
<defs>
<linearGradient id="paint0_linear_0_1" x1="50.0005" y1="52.3672" x2="50.0005" y2="58.4609" gradientUnits="userSpaceOnUse">
<stop stop-color="#616161"/>
<stop offset="0.8" stop-color="#C2C2C2"/>
</linearGradient>
<linearGradient id="paint1_linear_0_1" x1="50.0005" y1="63.6172" x2="50.0005" y2="58.4609" gradientUnits="userSpaceOnUse">
<stop stop-color="#616161"/>
<stop offset="1" stop-color="#9C9C9C"/>
</linearGradient>
<linearGradient id="paint2_linear_0_1" x1="50.0005" y1="68.7734" x2="50.0005" y2="63.6172" gradientUnits="userSpaceOnUse">
<stop stop-color="#ADADAD"/>
<stop offset="1" stop-color="#E6E6E6"/>
</linearGradient>
<linearGradient id="paint3_linear_0_1" x1="51.279" y1="43.8411" x2="72.0852" y2="40.917" gradientUnits="userSpaceOnUse">
<stop stop-color="#808080"/>
<stop offset="0.2" stop-color="#929292"/>
<stop offset="0.59" stop-color="#C2C2C2"/>
<stop offset="0.8" stop-color="#DEDEDE"/>
</linearGradient>
<linearGradient id="paint4_linear_0_1" x1="48.7204" y1="43.8411" x2="27.914" y2="40.9171" gradientUnits="userSpaceOnUse">
<stop stop-color="#808080"/>
<stop offset="0.2" stop-color="#929292"/>
<stop offset="0.59" stop-color="#C2C2C2"/>
<stop offset="0.8" stop-color="#DEDEDE"/>
</linearGradient>
<linearGradient id="paint5_linear_0_1" x1="49.9999" y1="31.3203" x2="49.9999" y2="54.9922" gradientUnits="userSpaceOnUse">
<stop stop-color="#B3B3B3"/>
<stop offset="0.2" stop-color="#C7C7C7"/>
<stop offset="0.43" stop-color="#D8D8D8"/>
<stop offset="0.68" stop-color="#E2E2E2"/>
<stop offset="1" stop-color="#E6E6E6"/>
</linearGradient>
<linearGradient id="paint6_linear_0_1" x1="50.0005" y1="31.3203" x2="50.0005" y2="25.2266" gradientUnits="userSpaceOnUse">
<stop stop-color="#B6B6B6"/>
<stop offset="1" stop-color="#EDEDED"/>
</linearGradient>
<linearGradient id="paint7_linear_0_1" x1="50.0005" y1="47.8438" x2="50.0005" y2="34.7188" gradientUnits="userSpaceOnUse">
<stop stop-color="#616161"/>
<stop offset="1" stop-color="#9C9C9C"/>
</linearGradient>
<linearGradient id="paint8_linear_0_1" x1="49.9999" y1="45.6772" x2="49.9999" y2="36.8872" gradientUnits="userSpaceOnUse">
<stop stop-color="#B6B6B6"/>
<stop offset="1" stop-color="#EDEDED"/>
</linearGradient>
</defs>
</svg>
